<svg
  height="32"
  width="32"
  viewBox="0 0 16 16"
  fill="#FFFFFF"
  xmlns="http://www.w3.org/2000/svg"
>
  <path d="M8 0C3.58 0 0 3.58 0 8c0 3.53 2.29 6.51 5.44 7.56.4.08.55-.17.55-.37v-1.31c-2.22.48-2.69-1.06-2.69-1.06-.36-.92-.88-1.17-.88-1.17-.72-.48.06-.47.06-.47.79.06 1.21.81 1.21.81.7 1.2 1.83.86 2.28.66.07-.5.27-.86.49-1.06-1.77-.2-3.63-.89-3.63-3.96 0-.87.31-1.57.81-2.12-.08-.2-.35-1.01.08-2.1 0 0 .66-.22 2.16.84.63-.18 1.31-.27 1.99-.27.68 0 1.36.09 1.99.27 1.5-1.06 2.16-.84 2.16-.84.43 1.09.16 1.9.08 2.1.5.55.81 1.25.81 2.12 0 3.07-1.87 3.76-3.65 3.96.27.23.51.68.51 1.37v2.04c0 .2.15.46.55.37C13.71 14.51 16 11.53 16 8c0-4.42-3.58-8-8-8z"/>
</svg>
